<svg width="800" height="800" viewBox="0 0 800 800" fill="none" xmlns="http://www.w3.org/2000/svg">
<path d="M266.667 366.667V367M533.333 366.667V367M266.667 266.667H533.333M266.667 266.667C166.667 266.667 133.333 396.33 133.333 450C133.333 650.863 186.779 683.333 400 683.333C613.22 683.333 666.667 650.863 666.667 450C666.667 396.33 633.333 266.667 533.333 266.667M266.667 266.667V233.333C266.667 159.695 326.362 100 400 100C473.637 100 533.333 159.695 533.333 233.333V266.667" stroke="#ACFCD9" stroke-width="50" stroke-linecap="round" stroke-linejoin="round"/>
<path fill-rule="evenodd" clip-rule="evenodd" d="M497 537C497 590.572 453.572 634 400 634C346.428 634 303 590.572 303 537C303 483.428 346.428 440 400 440C453.572 440 497 483.428 497 537ZM400 469.5C404.142 469.5 407.5 472.858 407.5 477V530H460.5C464.642 530 468 533.358 468 537.5C468 541.642 464.642 545 460.5 545H407.5V598C407.5 602.142 404.142 605.5 400 605.5C395.858 605.5 392.5 602.142 392.5 598V545H339.5C335.358 545 332 541.642 332 537.5C332 533.358 335.358 530 339.5 530H392.5V477C392.5 472.858 395.858 469.5 400 469.5Z" fill="#ACFCD9"/>
</svg>
